<svg width="88" height="88" viewBox="0 0 88 88" fill="none" xmlns="http://www.w3.org/2000/svg">
<path fill-rule="evenodd" clip-rule="evenodd" d="M25.6173 42.9504C25.5266 43.0872 25.4374 43.175 25.3467 43.2643C24.6311 44.4247 23.6478 48.3077 23.9616 50.0944C24.2755 51.7458 24.4094 52.817 25.6173 54.2927V42.9504ZM25.6173 27.3249V30.9401C24.9018 31.611 24.1416 31.7449 24.4512 32.1869C24.6311 32.5454 25.0789 32.5036 25.6173 32.6807V35.134C25.3913 35.0462 25.125 35.0462 24.8572 35.0462C23.38 35.134 22.5305 35.8957 22.5305 36.5219C22.5305 37.1914 23.2461 44.6435 23.0244 45.8976C22.7983 47.1933 21.1887 51.3873 21.6811 53.4418C22.2627 55.4071 24.3201 57.2816 24.8111 57.2816C24.9896 57.237 25.3006 57.0988 25.6173 56.9649V64.381C23.9616 62.5554 20.7438 58.7991 19.7144 56.5661C18.2818 53.4879 19.222 51.6119 19.6266 48.4848C20.0715 45.3605 19.9376 40.3128 19.4898 37.5456C18.9988 33.7533 20.1175 33.4884 21.3255 32.279C22.4398 31.1661 23.6478 30.9401 23.9616 29.2887C24.0955 28.0807 23.2461 27.5437 23.1568 26.88C23.0661 26.3415 24.7233 26.6093 25.6173 27.3249ZM25.6173 30.9401V27.3249C25.7944 27.4588 25.973 27.6373 26.0622 27.8158C26.6424 28.7948 26.6856 29.866 25.8391 30.714C25.7944 30.8062 25.7052 30.8954 25.6173 30.9401ZM25.6173 35.134C26.4207 35.3169 26.9563 35.8957 27.358 36.0281V36.1217V33.9347C27.2673 33.7533 27.178 33.7087 27.047 33.5806C26.5546 32.996 26.0162 32.7729 25.6173 32.6807V35.134ZM25.6173 54.2927C25.7052 54.4295 25.7944 54.5173 25.9283 54.6483C26.33 55.0471 26.9102 55.3624 27.358 55.6302V51.9229C27.2673 51.7919 27.178 51.6536 27.178 51.6119C26.6856 50.7193 26.1529 49.0247 26.5114 47.0594C26.7792 45.1834 26.6424 44.5528 27.2673 44.203L27.358 44.154V41.1666C26.6424 41.8792 25.973 42.5041 25.6173 42.9504V54.2927ZM25.6173 64.381C26.2436 65.098 26.6424 65.4968 26.6424 65.4968C26.6424 65.4968 26.4207 66.2123 26.1529 66.7925C25.9283 67.4203 26.5114 67.5513 26.8253 67.5513C26.9102 67.5513 27.178 67.2835 27.358 66.9264V60.5858C26.6856 60.1827 26.1529 59.47 25.9283 58.8884C25.7944 58.3585 25.2128 57.9943 26.1529 57.7754C26.33 57.7754 26.8253 57.7754 27.358 57.8215V56.615C27.047 56.7028 26.6856 56.7028 26.4207 56.7028C26.104 56.746 25.8391 56.8367 25.6173 56.9649V64.381ZM27.6719 60.7672V66.2555C27.5826 66.3894 27.4487 66.6572 27.358 66.8372V60.5858C27.4487 60.678 27.5826 60.7197 27.6719 60.7672ZM27.6719 56.615V57.8647C27.5826 57.8647 27.4487 57.8647 27.358 57.8215V56.615H27.6719ZM27.6719 52.4628V55.8073L27.358 55.6302V51.9229C27.4487 52.1043 27.5826 52.2828 27.6719 52.4628ZM27.6719 40.8527V43.9337C27.5826 43.9769 27.4487 44.0662 27.358 44.154V41.1666L27.6719 40.8527ZM27.6719 34.4214V36.1217C27.5826 36.1649 27.4948 36.1217 27.358 36.1217V33.9347C27.4948 34.0672 27.5826 34.2457 27.6719 34.4214ZM32.2301 68.5793C32.9917 68.8917 33.7073 69.1149 34.2428 69.2488V64.8748C33.8412 64.7841 33.4827 64.5566 33.7533 63.8871C33.8412 63.579 34.0643 63.2206 34.2428 62.8621V60.678C33.7073 61.4828 32.8578 62.4575 32.2301 62.8621V68.5793ZM34.2428 37.3296C33.4827 37.3296 32.6332 37.3296 32.2301 37.2375V38.6182C32.8578 38.3922 33.7073 38.1762 34.2428 38.1762V37.3296ZM32.2301 51.3873C32.7239 49.5127 33.3934 47.4611 33.7073 46.3468C33.7533 46.2085 34.0643 46.2532 34.2428 46.1207V44.7818C34.1982 44.7818 34.1089 44.691 34.1982 44.5528C34.1982 44.514 34.2428 44.334 34.2428 44.203V41.3868V41.4315C34.0643 42.0146 33.8412 42.7244 33.5734 43.4399C33.2177 44.6911 33.6166 45.0495 32.59 45.2756H32.2301V46.3468C32.4993 46.3468 32.7239 46.3468 32.6332 46.3914C32.59 46.6102 32.4993 47.3272 32.2301 48.1738V51.3873ZM34.2428 55.0097C33.7533 54.9161 32.8578 55.0097 32.2301 55.0097V56.0751C32.59 56.1212 32.901 56.1212 33.127 56.209C33.6166 56.209 33.8412 56.2536 34.2428 57.0556V57.1477V55.0097ZM34.2428 69.2488V64.8748C34.466 64.918 34.7784 64.918 34.9584 64.918C35.0923 64.918 35.2694 65.0058 35.4062 65.0058V69.4244C35.0923 69.4244 34.8245 69.4244 34.5567 69.3366C34.466 69.3366 34.3321 69.2488 34.2428 69.2488ZM34.2428 44.203V41.3868C34.7784 39.9601 35.0923 38.9321 35.0923 38.3087C35.0923 38.1762 34.8245 38.0826 34.2428 38.1762V37.3296H35.4062V40.8527C35.0477 41.7885 34.5999 43.0872 34.2428 44.203ZM34.2428 46.1207C34.3321 46.1207 34.466 46.1207 34.5567 45.9825C34.5999 45.8544 34.6935 45.3605 34.5999 45.0495C34.5999 44.8278 34.4228 44.8278 34.2428 44.7818V46.1207ZM35.4062 55.9441V61.7506C35.0477 61.9694 34.5999 62.3697 34.2428 62.8621V60.678C34.5999 60.2288 34.8245 59.9149 34.8245 59.7392C34.9584 59.2454 34.5999 57.9943 34.2428 57.1477V55.0097C34.3321 55.0097 34.4228 55.0471 34.466 55.0471C34.9138 55.2285 35.0923 55.3624 35.4062 55.9441ZM35.4062 69.4244C35.9389 69.4705 36.5234 69.5597 36.9697 69.5597V65.0058C36.6112 65.2319 36.0296 65.098 35.4062 65.0058V69.4244ZM35.4062 40.8527C35.674 39.8722 35.8957 39.2474 35.9389 39.112C36.0296 38.8831 36.6112 38.9321 36.9697 38.9321V37.5456C36.7451 37.4146 36.1203 37.3296 35.4062 37.3296V40.8527ZM36.9697 58.6206C36.1635 58.7084 35.8957 58.7084 35.5847 57.1477C35.5372 56.5661 35.4508 56.209 35.4062 55.9441V61.7506C35.4508 61.6599 35.5847 61.6599 35.5847 61.6599C35.8957 61.6599 36.2556 62.8203 36.3895 63.353C36.5234 63.664 36.7912 64.0657 36.9697 64.4271V64.5163V60.7672C36.879 60.5412 36.7912 60.4058 36.9697 60.1827V58.6206ZM36.9697 43.5752C36.6573 44.2908 36.3002 45.0078 36.1635 45.3605C35.4508 47.2811 35.314 49.1125 35.7618 50.5393C36.1635 51.8811 36.6112 52.817 36.9697 53.4879V53.5757V43.5752ZM36.9697 69.5597V65.0058C37.1051 64.8748 37.1051 64.738 36.9697 64.5163V60.8075C37.0158 60.8997 37.1051 61.0336 37.1497 61.2539C37.3714 61.8787 37.6406 62.3236 37.9991 63.5301C38.3101 64.2932 38.4901 64.738 38.7118 64.918V71.882C38.3101 72.1973 37.7313 71.656 37.7313 71.656C37.7313 71.656 37.8652 71.2543 37.9545 70.9001C38.087 70.6741 38.087 70.4063 38.2223 70.1414C38.3562 69.6965 37.8652 69.6965 36.9697 69.5597ZM36.9697 38.9321C37.0158 38.9321 37.0158 38.9321 37.1051 38.8831C37.4607 38.7564 37.5974 37.9516 36.9697 37.5456V38.9321ZM38.7118 40.3128V44.154C38.2223 44.5528 38.087 45.8544 37.9991 46.6102C37.7745 48.132 38.2223 49.245 38.7118 50.1837V60.4519C38.5779 60.4058 38.4469 60.4058 38.3101 60.3137C37.4607 59.9149 37.3714 59.7393 37.0158 60.1827H36.9697V58.6206C37.0158 58.6206 37.0158 58.5327 37.1051 58.5327C37.9545 58.5327 38.624 58.5327 38.624 57.8215C38.624 57.1938 38.3562 55.9441 37.9991 55.4071C37.7313 54.9161 37.3714 54.3805 36.9697 53.5757V43.5752C37.2836 42.7704 37.6406 42.0146 37.8652 41.5654C38.133 40.9405 38.3562 40.7188 38.7118 40.3128ZM38.7118 33.7087V35.4061C38.4901 35.1801 38.3562 34.9195 38.4469 34.3321C38.4901 34.0672 38.5779 33.8455 38.7118 33.7087ZM38.7118 71.882C38.7118 71.8374 38.8025 71.8374 38.8025 71.8374C38.9379 71.6143 39.1135 71.1665 39.2042 70.6295C39.341 69.9629 39.4749 69.7858 39.4749 69.7858C39.4749 69.7858 40.4136 69.829 41.4848 69.9125V65.8567C41.3048 65.8078 41.1709 65.7199 41.1277 65.5846C40.6799 64.8748 41.037 63.9332 41.4848 62.7282V59.2454C41.037 59.3332 40.906 58.0404 40.906 57.3248C40.8153 56.7028 40.6353 56.615 40.7692 55.6302C40.7692 55.276 41.1277 55.4992 41.4848 55.7641V53.4418C40.7692 52.9955 39.9198 52.2828 39.4274 51.5241C39.2042 51.1685 38.9378 50.7193 38.7118 50.2297V50.1837V60.4519C39.341 60.8075 39.698 61.12 40.0536 61.2539C40.5014 61.4828 40.6353 61.7909 40.3243 63.042C39.9615 64.2932 39.7859 65.098 39.2935 65.1368C39.0703 65.1368 38.8457 65.1368 38.7118 64.918V71.882ZM41.4848 34.9569C41.1277 34.5581 40.906 34.1104 40.6353 33.9347C40.2797 33.6165 39.2042 33.0867 38.7118 33.7087V35.4061C39.0703 35.6739 39.652 35.6279 40.2797 35.8496C41.037 36.0281 41.3048 36.7465 41.1277 37.1007C40.5014 38.1762 39.7859 38.8831 39.1135 39.734C38.9379 40.0061 38.8025 40.1832 38.7118 40.3128V44.154C38.8025 44.0662 38.8025 43.9769 38.9378 43.9769C39.4749 43.8459 40.6799 45.3605 41.4848 45.8976V43.1304C40.9938 42.2334 40.4136 41.0327 40.906 39.9601C40.9938 39.6001 41.1709 39.292 41.4848 38.9321V34.9569ZM43.8531 48.8404V56.7907C43.676 56.7028 43.499 56.7907 43.3622 56.8367C43.0037 56.9649 42.8698 57.6358 42.602 58.8423C42.3788 60.0949 42.2449 60.0488 41.7525 61.7506C41.6647 62.0169 41.6215 62.3697 41.4848 62.6835V62.7282V59.2454C41.8893 59.2022 41.9786 57.9943 42.0232 57.4616C42.2449 56.615 42.3788 56.435 41.9786 56.1212C41.8893 56.0751 41.6647 55.9441 41.4848 55.7641V53.4418V53.4879C41.8893 53.7096 42.2449 53.8406 42.5127 53.8406C42.8266 53.8406 43.4514 50.941 43.8531 48.8404ZM43.8531 45.1374V46.3914C43.3176 46.2532 42.3342 46.3914 41.7525 46.1207C41.6647 46.0746 41.6215 45.9825 41.4848 45.8976V43.1304V43.2153C41.6647 43.6199 41.9786 43.9769 42.111 44.2908C42.4681 44.7818 43.1822 45.0495 43.8531 45.1374ZM41.4848 69.9125V65.8567V65.946C42.0232 66.1245 43.0037 65.9877 43.8531 65.8078V69.9629H43.7192C43.2283 69.9629 42.3342 69.9629 41.4848 69.9125ZM43.8531 36.0281V37.1914C43.499 37.3296 43.2283 37.4563 42.8698 37.6824C42.3788 38.0366 41.8893 38.4411 41.4848 38.9321V34.9569C41.8893 35.6279 42.3342 36.1649 42.602 36.1217C42.8698 36.1217 43.3622 36.0281 43.8531 36.0281ZM43.8531 69.9629C44.5701 69.9629 46.1351 69.9125 47.5662 69.9125H47.608V66.0756H47.5662C46.8939 66.2987 46.4922 66.1245 46.7139 65.7199C46.8507 65.455 47.2495 64.918 47.5662 64.738H47.608V62.9542C47.608 62.9542 47.5662 62.9542 47.5662 63.042C47.4741 63.664 45.9984 65.0058 45.1518 65.455C44.8811 65.4968 44.3455 65.7199 43.8531 65.8078V69.9629ZM47.608 57.3248L47.5662 57.2816C46.7139 56.2536 43.9438 54.6944 43.9438 54.6944C43.8531 54.5605 43.8531 54.4295 43.8531 54.2927V53.9356C43.9438 52.2339 45.1518 48.6691 45.3749 47.3272C45.3749 47.1041 45.4196 46.8363 45.5088 46.3914C45.6427 46.0746 46.5368 46.3914 46.354 45.1834C46.354 44.9156 46.1351 44.2908 46.1351 44.154C46.6261 42.5977 47.1185 40.8527 47.5662 39.6001L47.608 39.5123V35.3169H47.5662C46.7139 35.3169 45.9105 35.4061 45.2857 35.6739C44.8811 35.8496 44.3455 35.9878 43.8531 36.0281V37.1914C44.3455 37.0546 44.9257 36.8776 45.6427 36.6127C46.8507 36.2542 46.9846 37.0547 46.9846 37.0547C46.9846 37.0547 47.1185 37.7285 46.4029 39.6462C45.6874 41.6575 45.1518 44.9156 44.6594 45.1374C44.4362 45.1834 44.1684 45.1834 43.8531 45.1374V46.3914C44.0777 46.3914 44.1684 46.4734 44.1684 46.6102C44.1684 46.7456 44.0777 47.5965 43.8531 48.6691V56.7907C44.2116 56.8367 44.5701 57.2816 45.0611 57.4616C45.7766 57.9079 46.269 58.1282 46.4029 59.6054C46.5368 61.12 47.4741 62.1494 47.5662 62.8203H47.608V57.3248ZM47.608 39.5123C47.965 38.5289 48.2328 37.7285 48.3264 37.5946C48.5942 37.1007 49.5286 36.8387 49.8007 36.7465C50.6041 36.7005 50.427 36.2542 50.0671 35.8496C49.8885 35.6279 49.088 35.4983 48.1018 35.4061C47.8772 35.3169 47.7433 35.3169 47.608 35.3169V39.5123ZM51.4982 41.7885V48.132C51.4535 48.623 51.2736 49.1125 51.2304 49.5127C51.1426 50.5854 51.2304 51.3873 51.4982 51.8811V61.6138C51.1426 61.8787 50.7826 62.1076 50.427 62.3697C49.4408 62.9542 49.4408 63.664 49.6668 64.381C49.7575 65.0058 50.7826 65.4968 51.4982 65.5846V71.3911C51.0979 71.8374 50.427 71.525 50.427 71.525C50.427 71.0326 50.2931 71.1665 50.5148 70.7634C50.6487 70.2767 50.738 69.9125 50.738 69.9125H47.608V66.0756C48.3264 65.8078 48.4128 65.8078 48.5496 65.1368C48.5942 64.6459 48.1896 64.5566 47.834 64.6459C47.7433 64.6459 47.7001 64.6459 47.608 64.738V57.3248C47.7433 57.4169 47.834 57.5508 47.834 57.6876C48.1896 58.6206 48.5942 61.8787 49.0391 61.9694C49.4408 62.0169 50.6041 60.678 50.7826 60.0488C51.2304 58.7573 49.4408 57.2816 48.9052 56.3472C48.3264 55.4071 47.4741 51.6119 48.4128 48.4848C48.8174 46.9702 50.2931 43.9337 51.4982 41.7885ZM51.4982 71.3911C51.6335 71.2543 51.7213 71.0326 51.7674 70.7634C51.8552 70.3142 51.8552 69.9629 51.9891 69.5597C52.0798 69.4705 52.5722 69.4244 53.4217 69.2027C53.6434 69.2027 53.8234 69.1149 54.0494 69.0688V64.5163C53.8234 64.5163 53.7773 64.2456 53.7773 63.579C53.7773 63.0881 53.9126 62.5036 54.0494 62.0169V58.4003L53.9573 58.4867C53.7773 58.7573 53.6434 58.9791 53.4217 58.8884C53.1971 58.8884 52.9264 58.5327 52.4844 57.6876C52.123 56.9649 51.9459 56.0751 52.5722 55.4071C52.8414 55.1421 53.1092 55.0097 53.4217 55.0097C53.6434 54.9161 53.8234 55.0097 54.0494 55.0097V53.4418C53.8234 53.354 53.6434 53.354 53.4217 53.3079C52.9264 53.3079 52.5722 53.0848 52.3505 52.9955C52.0798 52.7248 51.7213 52.4628 51.4982 51.9229V51.8811V61.6138C51.9459 61.2999 52.2598 61.0336 52.6183 60.8075C52.8414 60.678 53.2849 60.5412 53.4217 60.8075C53.4677 60.9472 53.4677 61.166 53.4217 61.5245C53.3338 61.6599 53.3338 61.7506 53.3338 61.7909C52.8414 63.0881 52.5722 65.4968 51.8552 65.5846H51.4982V71.3911ZM54.0494 38.6182C53.8234 38.7564 53.6434 38.9321 53.4217 39.112C52.9753 39.4662 52.6183 39.829 52.4383 40.1832C52.2137 40.5849 51.8552 41.0787 51.4982 41.6964V48.132V48.0399C51.8552 46.3914 52.4383 44.7818 52.6183 44.4247C52.9264 43.9337 53.0632 44.203 53.4217 44.514C53.5527 44.5528 53.6434 44.6911 53.7773 44.6911C53.8234 44.6911 53.9573 44.7818 54.0494 44.8278V38.6182ZM54.0494 33.6165C53.8234 33.6165 53.6434 33.6165 53.4217 33.7087C53.1971 33.7087 53.0632 33.7533 52.9264 33.9347C51.9891 34.823 52.5722 35.3169 53.4217 35.6279C53.6434 35.6739 53.8234 35.7589 54.0494 35.7589V33.6165ZM55.7454 52.506V55.7641C55.2545 56.7906 55.0299 58.4003 54.8067 59.2454C54.6742 59.8242 54.4482 60.5412 54.2711 61.2999C54.1804 61.5245 54.1372 61.7506 54.0494 62.0169V58.4003C54.1372 58.2678 54.1804 58.1282 54.2711 57.9943C54.3143 57.6358 54.405 57.1477 54.5389 56.4811C54.8067 55.4992 54.6282 55.2285 54.2711 55.1421C54.1804 55.0471 54.1372 55.0471 54.1372 55.0471L54.0494 55.0097V53.4418H54.2711C54.6742 53.4418 55.1177 53.354 55.3884 53.2187C55.5223 53.1769 55.6115 52.8616 55.7454 52.506ZM54.0494 69.0688V64.5163C54.1372 64.5566 54.1804 64.5566 54.2711 64.5566C54.5389 64.5163 54.9867 64.2932 55.6533 64.0657H55.7454V68.359C55.1638 68.6239 54.6742 68.8471 54.2711 68.981C54.1804 68.981 54.1372 68.981 54.0494 69.0688ZM55.7454 37.4563V39.112C55.5223 39.292 55.3884 39.5123 55.2545 39.6462C54.7621 40.4956 54.4482 40.7188 54.6282 42.2334C54.6742 43.3521 55.1638 43.9769 55.7454 44.334V45.8976C55.2545 45.7622 54.6742 45.2756 54.2711 45.0078C54.1804 44.9156 54.1372 44.8278 54.0494 44.8278V38.6182C54.1372 38.5289 54.1804 38.5289 54.2711 38.4411C54.6742 38.0826 55.2545 37.8177 55.7454 37.4563ZM55.7454 34.1996V36.342C55.4776 36.1649 55.1638 36.0281 54.896 35.9878C54.7621 35.8957 54.4482 35.8957 54.2711 35.8496C54.1804 35.8496 54.1372 35.8496 54.0494 35.7589V33.6165H54.2711C54.6742 33.7087 55.1638 33.9347 55.6115 34.1104C55.6115 34.1104 55.6533 34.1996 55.7454 34.1996ZM55.7454 22.771V23.3512C54.7621 22.8602 54.7621 22.5464 55.7454 22.771ZM55.7454 68.359C56.1039 68.2222 56.4566 67.9962 56.8641 67.8623V63.5301C56.5085 63.7129 56.1039 63.9332 55.7454 64.0657V68.359ZM56.8641 35.4061C56.5963 34.9195 56.1471 34.4674 55.7454 34.1996V36.342C56.1039 36.5219 56.4566 36.7465 56.7273 36.8776C56.4566 37.0547 56.1039 37.2375 55.7454 37.4563V39.112C56.0132 38.7564 56.4566 38.3922 56.8641 38.0366V35.4061ZM56.8641 52.9955C56.6424 52.9509 56.7273 52.2339 56.8641 51.0763V44.6435C56.5085 44.6911 56.1039 44.6435 55.7454 44.334V45.8976C55.8793 45.9825 56.0132 46.0746 56.1471 46.0746C56.4566 45.9825 56.8166 45.8976 56.8641 45.8544V45.8976C56.8166 46.3468 56.5085 48.4848 56.2378 49.4667C56.1039 50.1837 55.9729 51.6536 55.7454 52.506V55.7641C55.8793 55.4071 56.0132 55.2285 56.2378 55.0471C56.4566 55.0097 56.6424 54.8715 56.8641 54.7793V52.9955ZM56.8641 23.1295C56.7273 23.1295 56.6424 23.0373 56.5085 22.9912C56.2378 22.902 55.9729 22.8602 55.7454 22.771V23.3512C55.9729 23.4851 56.1471 23.5297 56.4566 23.7039C56.5963 23.8421 56.7273 23.8868 56.8641 23.9789V23.1295ZM27.6719 36.1217C28.0735 36.0756 28.2074 35.3169 27.6719 34.4214V36.1217ZM27.6719 43.9337V40.8527C29.1476 39.5123 30.6694 38.1762 30.5787 37.9041C30.5355 36.7005 29.9524 37.1007 29.2369 36.342C28.6998 35.5372 29.0137 34.1104 30.8897 35.1801C31.7406 35.6739 31.1575 36.7005 32.0098 37.1914C32.0544 37.2375 32.1423 37.2375 32.2301 37.2375V38.6182C32.0544 38.6643 31.9177 38.7564 31.7406 38.8011C30.8004 39.4662 30.3987 39.4662 29.8171 40.451C28.7459 42.4134 29.8171 42.7244 30.2188 43.7091C30.8004 44.8278 31.4267 45.2756 32.2301 45.2756V46.3468C31.7838 46.3468 31.1575 46.3914 30.8004 46.2085C30.177 45.8544 29.7264 45.3605 28.8337 44.203C28.3874 43.6674 28.0304 43.7538 27.6719 43.9337ZM27.6719 66.2555V60.7672C27.8086 60.8075 27.9396 60.8536 28.1182 60.8997C28.3442 60.9472 28.6998 60.1827 28.8337 59.47C28.9691 58.7573 29.3247 58.2678 28.9691 58.0404C28.923 58.0404 28.3442 57.9554 27.6719 57.8647V56.615C28.2074 56.615 28.6091 56.615 28.6091 56.435C28.6091 56.2997 28.2074 56.0751 27.6719 55.8073V52.4628C28.7459 53.8406 29.8603 54.4295 30.2188 54.3805C30.6694 54.2927 30.9343 51.9229 31.562 50.45C31.7838 49.8223 32.0544 48.9743 32.2301 48.1738V51.4334C31.7406 53.3079 31.385 54.8715 31.562 54.9161C31.6527 55.0097 31.9177 55.0097 32.2301 55.0097V56.0751C31.6527 55.9858 31.0711 56.0751 30.9343 56.3472C30.8897 56.7028 31.7838 57.9079 31.6527 58.3585C31.2914 59.1115 30.308 58.2678 30.177 58.7084C29.7264 60.0488 29.3247 61.3878 29.2369 61.7506C29.1908 62.3236 29.8171 62.2372 30.308 62.5986C30.8897 62.8621 30.9343 63.5301 31.7838 63.1774C31.9177 63.0881 32.0544 63.042 32.2301 62.8621V68.5793C30.3987 67.7745 28.4752 66.6572 27.7597 66.0756C27.7597 66.0756 27.7165 66.1245 27.6719 66.2555ZM59.4556 61.5245V66.2555C59.3664 66.3477 59.2339 66.4384 59.1418 66.4772C58.3384 67.0172 57.5768 67.4203 56.8641 67.7745V63.5301C58.0274 62.8203 59.0525 61.9248 59.4556 61.5245ZM59.4556 52.8616V54.5605C59.3664 54.4727 59.2339 54.4295 59.1418 54.4295C58.5184 54.4295 57.5768 54.5605 56.8641 54.7793V52.9955C57.6675 53.1265 58.8308 52.8616 59.4556 52.8616ZM59.4556 35.7589V40.7188C59.1878 41.5654 58.9186 42.4594 58.6508 43.4399C58.563 43.8013 59.1418 44.154 59.1418 44.5528C59.0525 45.8544 58.1627 45.6283 58.0706 46.0746C57.5768 47.9017 57.1751 49.7345 56.8641 51.0302V44.6435C56.998 44.5528 57.0844 44.5528 57.1751 44.5528C57.5768 44.334 57.8028 42.8583 58.0274 41.8792C58.2045 40.8527 58.9186 38.7564 59.1418 38.0826C59.3664 37.5456 59.2785 36.4759 58.3384 37.0547C57.9353 37.2375 57.4429 37.5946 56.8641 38.0366V35.4061C57.2211 35.8496 57.4429 36.1649 57.5768 36.4759C58.2045 36.1649 58.694 35.9878 58.9186 35.8957C59.0986 35.8496 59.2785 35.805 59.4556 35.7589ZM59.4556 24.5116V26.1644C58.6508 25.3179 57.7567 24.5116 56.8641 23.9789V23.1295C57.7135 23.4419 58.6047 23.93 59.4556 24.5116ZM59.4556 26.1644V24.5116C60.7514 25.4474 62.0025 26.6093 63.078 27.7251H63.1687V30.9401H63.078C62.8088 30.4505 62.5381 29.9582 62.0932 29.4226C61.5577 28.7085 60.5729 27.3724 59.4556 26.1644ZM59.4556 40.7188V35.7589C60.259 35.6279 60.8407 35.8496 60.8407 35.8496C60.8407 35.8496 63.5675 36.342 60.7514 37.2375C60.5729 37.2807 60.0819 38.7132 59.4556 40.7188ZM59.4556 66.2555V61.5245L59.5017 61.4828C60.0373 60.8997 60.8882 58.8884 60.8882 58.2678C60.8882 57.6876 60.2158 55.1853 59.4556 54.5605V52.8616C59.5895 52.817 59.6802 52.8616 59.7695 52.8616C60.259 53.0848 61.1113 55.7641 61.1992 55.9858C61.1992 55.9858 60.8407 43.0872 61.6008 39.9601C61.8715 38.7564 62.5381 37.8177 63.078 37.1007H63.1687V39.6001H63.078C62.9009 40.0061 62.8088 40.3617 62.8088 40.5849C62.8088 41.0787 62.9009 41.6964 63.078 41.6575H63.1687V57.6358C63.1687 57.6876 63.1687 57.6876 63.078 57.6876C63.078 57.8215 63.0348 57.9943 62.9427 58.1282C62.4532 59.3822 61.8255 60.1827 61.8255 60.1827C61.1992 61.166 60.8882 61.9694 62.1825 60.9472C62.5381 60.5412 62.8088 60.1827 63.078 59.8242C63.1687 59.8242 63.1687 59.7392 63.1687 59.7392V62.8203H63.078C62.1825 63.7993 60.9314 65.1829 59.4556 66.2555ZM67.5916 33.0867C67.0546 32.279 65.2693 29.9985 63.1687 27.7251V30.9401C64.7784 33.5806 65.2232 35.5372 65.2232 35.5372C65.2232 35.5372 64.1492 36.0281 63.1687 37.1007V39.6001C63.5243 38.8011 64.1492 37.9516 64.597 37.5456C65.3571 36.8387 65.7128 37.5456 65.6249 37.9041C65.5789 38.7564 64.9123 39.377 64.417 39.6462C63.2105 40.5849 63.5675 41.3868 63.2105 41.5654C63.1687 41.5654 63.1687 41.5654 63.1687 41.6575V57.6358C63.8814 55.7209 63.7936 54.5605 63.7461 52.2339C63.6582 49.5127 63.5243 46.8363 63.7936 47.2811C64.1492 47.6828 64.9986 51.1685 64.9986 52.8616C64.9123 56.209 64.9123 57.4616 63.1687 59.7392V62.8203C63.5243 62.4575 63.8814 62.1076 64.1492 61.7909C66.4744 59.6054 67.0546 56.209 67.4563 55.1421C67.8133 54.0249 67.5455 52.4628 66.8343 50.45C66.2527 48.5337 65.4939 45.8544 65.1325 44.203C64.7309 42.5977 64.597 41.2098 65.0865 40.4956C65.4939 39.829 65.5789 39.734 66.2527 40.0939C66.8343 40.3617 67.1007 41.0787 66.8343 43.9769C66.5651 47.0594 66.9221 47.7707 67.7701 45.8976C68.4439 44.203 68.395 42.3702 68.4439 41.2098C68.6196 40.0061 68.7996 38.9321 69.1134 38.3922C69.3812 37.8177 68.6196 34.6892 67.5916 33.0867Z" fill="#006097"/>
</svg>
